<?xml version="1.0" encoding="UTF-8" ?>
<svg version="1.1" width="400" height="100" xmlns="http://www.w3.org/2000/svg" shape-rendering="crispEdges">
<rect x="222" y="4" width="11" height="75" fill="#06B3B7" />
<rect x="333" y="4" width="13" height="75" fill="#06B3B7" />
<rect x="196" y="10" width="13" height="63" fill="#06B3B7" />
<rect x="353" y="17" width="13" height="17" fill="#06B3B7" />
<rect x="45" y="22" width="20" height="12" fill="#06B3B7" />
<rect x="76" y="22" width="13" height="51" fill="#06B3B7" />
<rect x="95" y="22" width="14" height="51" fill="#06B3B7" />
<rect x="122" y="22" width="17" height="12" fill="#06B3B7" />
<rect x="159" y="22" width="17" height="12" fill="#06B3B7" />
<rect x="189" y="22" width="7" height="12" fill="#06B3B7" />
<rect x="209" y="22" width="6" height="12" fill="#06B3B7" />
<rect x="233" y="22" width="13" height="12" fill="#06B3B7" />
<rect x="266" y="22" width="17" height="12" fill="#06B3B7" />
<rect x="303" y="22" width="19" height="12" fill="#06B3B7" />
<rect x="38" y="27" width="7" height="46" fill="#06B3B7" />
<rect x="65" y="27" width="6" height="66" fill="#06B3B7" />
<rect x="115" y="27" width="7" height="46" fill="#06B3B7" />
<rect x="139" y="27" width="7" height="26" fill="#06B3B7" />
<rect x="152" y="27" width="7" height="20" fill="#06B3B7" />
<rect x="176" y="27" width="7" height="14" fill="#06B3B7" />
<rect x="246" y="27" width="7" height="46" fill="#06B3B7" />
<rect x="259" y="27" width="7" height="46" fill="#06B3B7" />
<rect x="283" y="27" width="7" height="46" fill="#06B3B7" />
<rect x="296" y="27" width="7" height="46" fill="#06B3B7" />
<rect x="322" y="27" width="8" height="46" fill="#06B3B7" />
<rect x="45" y="34" width="7" height="45" fill="#06B3B7" />
<rect x="58" y="34" width="7" height="65" fill="#06B3B7" />
<rect x="122" y="34" width="3" height="45" fill="#06B3B7" />
<rect x="133" y="34" width="6" height="19" fill="#06B3B7" />
<rect x="159" y="34" width="6" height="19" fill="#06B3B7" />
<rect x="172" y="34" width="4" height="7" fill="#06B3B7" />
<rect x="240" y="34" width="6" height="45" fill="#06B3B7" />
<rect x="266" y="34" width="6" height="45" fill="#06B3B7" />
<rect x="279" y="34" width="4" height="45" fill="#06B3B7" />
<rect x="303" y="34" width="6" height="45" fill="#06B3B7" />
<rect x="316" y="34" width="6" height="45" fill="#06B3B7" />
<rect x="346" y="34" width="14" height="13" fill="#06B3B7" />
<rect x="125" y="41" width="8" height="12" fill="#06B3B7" />
<rect x="165" y="41" width="7" height="20" fill="#06B3B7" />
<rect x="172" y="47" width="4" height="32" fill="#06B3B7" />
<rect x="353" y="47" width="13" height="32" fill="#06B3B7" />
<rect x="176" y="53" width="7" height="20" fill="#06B3B7" />
<rect x="133" y="61" width="13" height="12" fill="#06B3B7" />
<rect x="152" y="61" width="13" height="12" fill="#06B3B7" />
<rect x="52" y="67" width="6" height="12" fill="#06B3B7" />
<rect x="89" y="67" width="6" height="12" fill="#06B3B7" />
<rect x="125" y="67" width="8" height="12" fill="#06B3B7" />
<rect x="165" y="67" width="7" height="12" fill="#06B3B7" />
<rect x="209" y="67" width="6" height="12" fill="#06B3B7" />
<rect x="233" y="67" width="7" height="12" fill="#06B3B7" />
<rect x="272" y="67" width="7" height="12" fill="#06B3B7" />
<rect x="309" y="67" width="7" height="12" fill="#06B3B7" />
<rect x="82" y="73" width="7" height="6" fill="#06B3B7" />
<rect x="95" y="73" width="7" height="6" fill="#06B3B7" />
<rect x="133" y="73" width="6" height="6" fill="#06B3B7" />
<rect x="159" y="73" width="6" height="6" fill="#06B3B7" />
<rect x="202" y="73" width="7" height="6" fill="#06B3B7" />
<rect x="38" y="86" width="20" height="13" fill="#06B3B7" />
</svg>